<?xml version="1.0" encoding="utf-8"?>
<!-- Generator: Adobe Illustrator 27.9.0, SVG Export Plug-In . SVG Version: 6.00 Build 0)  -->
<svg version="1.1" id="Livello_1" xmlns="http://www.w3.org/2000/svg" xmlns:xlink="http://www.w3.org/1999/xlink" x="0px" y="0px"
	 viewBox="0 0 731 240.01" style="enable-background:new 0 0 731 240.01;" xml:space="preserve">
<style type="text/css">
	.st0{fill:#FFFFFF;}
</style>
<g>
	<path class="st0" d="M730.26,218.33c-243.3,0-486.59,0-730,0c0-65.61,0-131.24,0-197c243.26,0,486.63,0,730,0
		C730.26,86.93,730.26,152.63,730.26,218.33z M356.84,168.85c0-40.48,0-80.7,0-121.06c-8.7,0-17.08,0-26,0c0,4.31,0,8.24,0,12.77
		c-4.76,0-8.99,0-13.7,0c0,4.85,0,9.11,0,13.92c-4.72,0-8.97,0-13.87,0c0,4.93,0,9.31,0,13.69c-4.79,0-8.91,0-13.4,0
		c-0.24-4.61-0.47-8.99-0.72-13.85c-4.64,0-8.72,0-13.38,0c0-4.9,0-9.29,0-14.2c-4.85,0-9.09,0-13.83,0c0-4.45,0-8.37,0-12.31
		c-9.07,0-17.63,0-26.12,0c0,40.61,0,80.83,0,121.04c8.87,0,17.31,0,26.46,0c0-27.3,0-54.34,0-81.32c5.11,0,9.48,0,14.33,0
		c0,4.72,0,8.98,0,13.56c3.63,0,6.78,0.13,9.92-0.04c2.85-0.15,3.88,1.02,3.75,3.8c-0.15,3.27-0.03,6.54-0.03,9.87
		c4.61,0,8.5,0,12.88,0c0-4.6,0-8.85,0-13.64c4.57,0,8.65,0,13.49,0c0-4.9,0-9.27,0-13.74c5.05,0,9.32,0,14.37,0
		c0,27.3,0,54.34,0,81.52C340.04,168.85,348.29,168.85,356.84,168.85z M451.83,168.76c9.35,0,17.74,0,26.25,0
		c0-31.55,0-62.74,0-94.5c-4.53,0-8.6,0-13.15,0c0-4.64,0-8.73,0-13.46c-4.74,0-8.98,0-13.78,0c0-4.72,0-8.8,0-12.96
		c-13.58,0-26.6,0-40,0c0,4.38,0,8.34,0,12.69c-4.73,0.26-9.09,0.51-13.91,0.77c0,4.67,0,8.75,0,13.37c-4.58,0-8.64,0-12.7,0
		c0,31.67,0,62.76,0,94.09c8.65,0,17.03,0,26.16,0c0-9.02,0-17.72,0-26.47c14.02,0,27.29,0,41.14,0
		C451.83,151.13,451.83,159.74,451.83,168.76z M717.25,168.85c0.11-2.17,0.3-4.11,0.3-6.06c0.03-15.17,0.02-30.34,0.03-45.52
		c0-12.5-0.12-25.01,0.09-37.51c0.07-4-0.91-5.93-5.26-5.39c-2.57,0.32-5.21,0.06-8.33,0.06c0-4.68,0-8.77,0-13.54
		c-3.62,0-6.73-0.12-9.83,0.03c-2.96,0.15-4.28-0.92-4.09-4.02c0.19-3.07,0.04-6.15,0.04-9.09c-13.79,0-26.7,0-40,0
		c0,4.36,0,8.32,0,12.7c-4.73,0.27-9.09,0.51-13.92,0.78c0,4.69,0,8.77,0,13.42c-4.58,0-8.63,0-12.62,0c0,31.7,0,62.8,0,93.99
		c8.72,0,17.09,0,26.01,0c0-9,0-17.61,0-26.31c13.96,0,27.36,0,41.54,0c0,9.01,0,17.72,0,26.45
		C700.26,168.85,708.53,168.85,717.25,168.85z M204.6,156.26c0-36.66,0-72.55,0-108.41c-8.93,0-17.48,0-26.53,0
		c0,31.69,0,62.95,0,94.26c-13.91,0-27.31,0-41.18,0c0-31.61,0-62.88,0-94.35c-9.03,0-17.57,0-26.15,0c0,36.25,0,72.14,0,108.54
		c4.48,0,8.57,0,12.85,0c0.19,4.41,0.36,8.34,0.54,12.47c22.46,0,44.51,0,67.11,0c0-4.26,0-8.19,0-12.5
		C195.9,156.26,200.01,156.26,204.6,156.26z M533.91,142.19c0-22.7,0-45.12,0-67.76c13.7,0,27.07,0,41.07,0c0,4.27,0,8.19,0,12.37
		c9.04,0,17.45,0,26.22,0c0-8.78,0-17.32,0-26.53c-4.57,0-8.78,0-13.42,0c0-4.6,0-8.53,0-12.48c-22.67,0-44.89,0-67.54,0
		c0,4.32,0,8.25,0,12.69c-4.51,0-8.6,0-12.92,0c0,31.74,0,62.96,0,94.72c4.5,0,8.58,0,13.28,0c0,4.91,0,9.3,0,13.59
		c22.74,0,44.84,0,67.6,0c0-4.68,0-9.07,0-13.95c4.75,0,8.83,0,13.03,0c0-8.95,0-17.37,0-26.08c-8.78,0-17.18,0-26.02,0
		c-0.2,4.63-0.4,9-0.59,13.43C560.79,142.19,547.52,142.19,533.91,142.19z M28.83,168.7c22.99,0,45.02,0,67,0
		c0-8.85,0-17.29,0-26.35c-17.99,0-35.7,0-54.07,0c0-31.99,0-63.35,0-94.64c-9.11,0-17.54,0-26.09,0c0,36.19,0,72.07,0,108.43
		c4.43,0,8.52,0,13.16,0C28.83,160.53,28.83,164.47,28.83,168.7z"/>
	<path class="st0" d="M356.84,168.85c-8.55,0-16.8,0-25.84,0c0-27.18,0-54.22,0-81.52c-5.05,0-9.33,0-14.37,0c0,4.47,0,8.84,0,13.74
		c-4.84,0-8.92,0-13.49,0c0,4.78,0,9.04,0,13.64c-4.39,0-8.28,0-12.88,0c0-3.32-0.11-6.6,0.03-9.87c0.12-2.77-0.91-3.95-3.75-3.8
		c-3.14,0.17-6.29,0.04-9.92,0.04c0-4.58,0-8.83,0-13.56c-4.85,0-9.23,0-14.33,0c0,26.98,0,54.02,0,81.32c-9.15,0-17.59,0-26.46,0
		c0-40.21,0-80.43,0-121.04c8.49,0,17.04,0,26.12,0c0,3.94,0,7.86,0,12.31c4.74,0,8.98,0,13.83,0c0,4.91,0,9.3,0,14.2
		c4.66,0,8.74,0,13.38,0c0.25,4.86,0.48,9.25,0.72,13.85c4.5,0,8.61,0,13.4,0c0-4.39,0-8.77,0-13.69c4.9,0,9.15,0,13.87,0
		c0-4.81,0-9.07,0-13.92c4.71,0,8.94,0,13.7,0c0-4.53,0-8.46,0-12.77c8.92,0,17.3,0,26,0C356.84,88.14,356.84,128.36,356.84,168.85z
		"/>
	<path class="st0" d="M451.83,168.76c0-9.02,0-17.63,0-26.46c-13.84,0-27.12,0-41.14,0c0,8.75,0,17.45,0,26.47
		c-9.12,0-17.5,0-26.16,0c0-31.33,0-62.43,0-94.09c4.06,0,8.12,0,12.7,0c0-4.62,0-8.7,0-13.37c4.82-0.27,9.18-0.51,13.91-0.77
		c0-4.35,0-8.31,0-12.69c13.41,0,26.42,0,40,0c0,4.15,0,8.24,0,12.96c4.8,0,9.04,0,13.78,0c0,4.73,0,8.82,0,13.46
		c4.55,0,8.62,0,13.15,0c0,31.75,0,62.95,0,94.5C469.57,168.76,461.17,168.76,451.83,168.76z M410.97,88.25c0,13.44,0,26.66,0,40
		c13.68,0,26.97,0,40.53,0c0-13.44,0-26.65,0-40C437.79,88.25,424.5,88.25,410.97,88.25z"/>
	<path class="st0" d="M717.25,168.85c-8.71,0-16.98,0-26.03,0c0-8.74,0-17.44,0-26.45c-14.18,0-27.58,0-41.54,0
		c0,8.7,0,17.31,0,26.31c-8.92,0-17.29,0-26.01,0c0-31.19,0-62.29,0-93.99c3.98,0,8.04,0,12.62,0c0-4.65,0-8.74,0-13.42
		c4.83-0.27,9.19-0.52,13.92-0.78c0-4.38,0-8.34,0-12.7c13.3,0,26.21,0,40,0c0,2.93,0.15,6.02-0.04,9.09
		c-0.2,3.1,1.12,4.17,4.09,4.02c3.1-0.15,6.22-0.03,9.83-0.03c0,4.77,0,8.86,0,13.54c3.12,0,5.76,0.26,8.33-0.06
		c4.35-0.54,5.33,1.39,5.26,5.39c-0.21,12.5-0.08,25.01-0.09,37.51c0,15.17,0,30.34-0.03,45.52
		C717.54,164.74,717.36,166.68,717.25,168.85z M649.92,128.14c13.81,0,27.19,0,40.73,0c0-13.41,0-26.47,0-39.82
		c-13.67,0-27.05,0-40.73,0C649.92,101.59,649.92,114.66,649.92,128.14z"/>
	<path class="st0" d="M204.6,156.26c-4.59,0-8.71,0-13.36,0c0,4.31,0,8.24,0,12.5c-22.6,0-44.64,0-67.11,0
		c-0.18-4.13-0.35-8.06-0.54-12.47c-4.29,0-8.37,0-12.85,0c0-36.39,0-72.29,0-108.54c8.58,0,17.12,0,26.15,0
		c0,31.47,0,62.73,0,94.35c13.87,0,27.27,0,41.18,0c0-31.31,0-62.57,0-94.26c9.05,0,17.6,0,26.53,0
		C204.6,83.7,204.6,119.6,204.6,156.26z"/>
	<path class="st0" d="M533.91,142.19c13.61,0,26.88,0,40.72,0c0.19-4.42,0.39-8.8,0.59-13.43c8.84,0,17.24,0,26.02,0
		c0,8.71,0,17.13,0,26.08c-4.2,0-8.28,0-13.03,0c0,4.88,0,9.26,0,13.95c-22.76,0-44.86,0-67.6,0c0-4.29,0-8.67,0-13.59
		c-4.7,0-8.78,0-13.28,0c0-31.76,0-62.98,0-94.72c4.33,0,8.41,0,12.92,0c0-4.44,0-8.37,0-12.69c22.65,0,44.87,0,67.54,0
		c0,3.94,0,7.87,0,12.48c4.64,0,8.85,0,13.42,0c0,9.21,0,17.75,0,26.53c-8.77,0-17.18,0-26.22,0c0-4.19,0-8.1,0-12.37
		c-14,0-27.37,0-41.07,0C533.91,97.07,533.91,119.5,533.91,142.19z"/>
	<path class="st0" d="M28.83,168.7c0-4.23,0-8.17,0-12.56c-4.64,0-8.73,0-13.16,0c0-36.36,0-72.24,0-108.43c8.55,0,16.97,0,26.09,0
		c0,31.29,0,62.65,0,94.64c18.37,0,36.08,0,54.07,0c0,9.06,0,17.5,0,26.35C73.84,168.7,51.82,168.7,28.83,168.7z"/>
	<path class="st0" d="M410.97,88.25c13.53,0,26.82,0,40.53,0c0,13.36,0,26.57,0,40c-13.57,0-26.85,0-40.53,0
		C410.97,114.91,410.97,101.69,410.97,88.25z"/>
	<path class="st0" d="M649.92,128.14c0-13.48,0-26.55,0-39.82c13.68,0,27.06,0,40.73,0c0,13.35,0,26.42,0,39.82
		C677.11,128.14,663.73,128.14,649.92,128.14z"/>
</g>
</svg>
